<svg width="286" height="286" viewBox="0 0 286 286" fill="none" xmlns="http://www.w3.org/2000/svg">
<path fill-rule="evenodd" clip-rule="evenodd" d="M0 142.805C0 111.181 10.2794 81.9576 27.6793 58.2943L58.8323 89.4474C49.1134 104.755 43.485 122.914 43.485 142.389C43.485 162.182 49.2996 180.618 59.3139 196.081L27.8489 227.546C10.3463 203.842 0 174.532 0 142.805ZM58.5249 258.1L90.2041 226.421C105.352 235.847 123.234 241.292 142.389 241.292C161.863 241.292 180.023 235.664 195.33 225.945L227.315 257.931C203.652 275.33 174.429 285.61 142.805 285.61C111.283 285.61 82.1473 275.397 58.5249 258.1ZM257.931 227.316C275.33 203.652 285.61 174.429 285.61 142.805C285.61 111.283 275.397 82.1473 258.1 58.525L226.421 90.2042C235.847 105.352 241.292 123.234 241.292 142.389C241.292 161.863 235.664 180.023 225.945 195.33L257.931 227.316ZM227.546 27.8489C203.842 10.3463 174.532 0 142.805 0C111.181 0 81.9575 10.2794 58.2943 27.6793L89.4474 58.8324C104.755 49.1135 122.914 43.485 142.389 43.485C162.182 43.485 180.618 49.2997 196.081 59.314L227.546 27.8489Z" fill="url(#paint0_radial)"/>
<path d="M93.0072 211.608C72.403 216.629 70.2468 203.362 74.1252 192.726L124.86 146.363L162.959 110.252C161.517 109.309 169.574 93.7791 172.547 87.9436C173.929 84.1838 202.186 61.8898 198.432 65.6435C197.181 66.8948 178.799 91.4938 180.635 91.3905C184.426 91.1773 207 71.4998 205.786 72.9976C204.552 74.5205 185.899 97.655 187.393 98.1483C188.887 98.6416 212.869 77.4419 211.3 79.0118C209.777 80.534 194.813 101.064 194.504 103.758C194.195 106.452 222.141 79.7059 217.91 85.1218C214.787 89.1206 202.13 104.877 195.205 110.602C192.285 112.887 173.659 121.952 171.502 120.797L136.786 158.289L93.0072 211.608Z" fill="url(#paint1_linear)"/>
<path d="M191.975 210.8C207.841 213.627 214.153 207.139 210.062 192.713L202.911 195.897L176.239 169.225L176.23 169.213C172.484 164.481 162.996 152.491 158.482 141.132C153.634 128.935 103.5 89.9998 73.6153 80.5143L151.221 166.468L191.975 210.8Z" fill="url(#paint2_linear)"/>
<defs>
<radialGradient id="paint0_radial" cx="0" cy="0" r="1" gradientUnits="userSpaceOnUse" gradientTransform="translate(142.805 142.805) rotate(90) scale(142.805)">
<stop offset="0.786458" stop-color="#EE4266"/>
<stop offset="1" stop-color="#E2791E"/>
</radialGradient>
<linearGradient id="paint1_linear" x1="208.468" y1="74.5371" x2="74.5369" y2="208.468" gradientUnits="userSpaceOnUse">
<stop stop-color="#D10553"/>
<stop offset="1" stop-color="#E2800C"/>
</linearGradient>
<linearGradient id="paint2_linear" x1="76.7729" y1="77.3567" x2="208.072" y2="208.656" gradientUnits="userSpaceOnUse">
<stop stop-color="#D30E4E"/>
<stop offset="1" stop-color="#E48618"/>
</linearGradient>
</defs>
</svg>
