<svg width="339" height="339" viewBox="0 0 339 339" fill="none" xmlns="http://www.w3.org/2000/svg">
<path fill-rule="evenodd" clip-rule="evenodd" d="M182.5 0.35199L197.021 2.73169C223.821 7.12352 248.497 17.8132 269.479 33.2322L235.448 67.2625C222.635 58.8755 208.143 52.8443 192.588 49.7858L182.5 47.8022V37.5207V36.5015V26.6876V21.3271V16.0807V15.0672V0.35199ZM271.895 104.355C279.839 116.97 285.526 131.147 288.389 146.318L290.31 156.5H300.672H301.69H312.312H316.747H322.919H323.933H338.648L336.268 141.979C331.915 115.414 321.374 90.9377 306.174 70.0761L271.895 104.355ZM155.5 0.421932V15.2344V16.2491V21.3271V26.7858V36.5015V37.5207V47.8022L145.412 49.7858C130.219 52.773 116.04 58.5961 103.45 66.6803L69.7985 33.029C90.4379 17.9262 114.633 7.39194 140.898 2.9123L155.5 0.421932ZM33.0289 69.7985L66.6803 103.45C58.4356 116.291 52.5426 130.783 49.6112 146.318L47.6898 156.5H37.328H36.3103H26.6875H21.2525H16.0807H15.0671H0.351929L2.73163 141.979C7.10418 115.296 17.7193 90.7204 33.0289 69.7985ZM0.421867 183.5H15.2343H16.249H21.4082H26.7857H36.7005H37.7212H47.9228L49.9676 193.495C53.0796 208.706 59.0384 222.884 67.2624 235.448L33.2321 269.479C18.0206 248.779 7.41196 224.485 2.91223 198.102L0.421867 183.5ZM70.076 306.174L104.355 271.895C116.719 279.681 130.582 285.298 145.412 288.214L155.5 290.198V300.479V301.499V312.214V316.673V322.751V323.766V338.578L140.898 336.088C114.751 331.628 90.6546 321.168 70.076 306.174ZM290.077 183.5H300.279H301.3H312.214H316.592H322.751H323.766H338.578L336.088 198.102C331.608 224.367 321.074 248.562 305.971 269.201L271.32 234.55C279.243 222.21 284.994 208.345 288.032 193.495L290.077 183.5ZM234.55 271.32C221.959 279.404 207.78 285.227 192.588 288.214L182.5 290.198V300.479V301.499V312.313V316.673V322.919V323.933V338.648L197.021 336.268C223.704 331.896 248.28 321.281 269.201 305.971L234.55 271.32Z" fill="url(#paint0_radial)"/>
<path d="M120.008 239.608C99.4034 244.629 97.2471 231.362 101.126 220.726L151.861 174.363L189.96 138.252C188.517 137.309 196.574 121.779 199.547 115.944C200.929 112.184 229.186 89.8899 225.432 93.6437C224.181 94.895 205.8 119.494 207.635 119.391C211.426 119.178 234 99.5 232.786 100.998C231.552 102.521 212.899 125.655 214.393 126.148C215.888 126.642 239.87 105.442 238.3 107.012C236.778 108.534 221.813 129.064 221.504 131.758C221.195 134.452 249.141 107.706 244.91 113.122C241.787 117.121 229.13 132.877 222.206 138.602C219.285 140.887 200.66 149.953 198.503 148.797L163.786 186.289L120.008 239.608Z" fill="url(#paint1_linear)"/>
<path d="M218.976 238.8C234.841 241.627 241.153 235.139 237.063 220.713L229.911 223.897L203.239 197.225L203.23 197.213C199.485 192.481 189.996 180.491 185.482 169.132C180.634 156.935 130.5 118 100.616 108.515L178.222 194.468L218.976 238.8Z" fill="url(#paint2_linear)"/>
<defs>
<radialGradient id="paint0_radial" cx="0" cy="0" r="1" gradientUnits="userSpaceOnUse" gradientTransform="translate(169 170) rotate(90) scale(183.5)">
<stop offset="0.631439" stop-color="#D10553"/>
<stop offset="0.932292" stop-color="#E59500"/>
</radialGradient>
<linearGradient id="paint1_linear" x1="235.468" y1="102.537" x2="101.537" y2="236.468" gradientUnits="userSpaceOnUse">
<stop stop-color="white"/>
<stop offset="1" stop-color="#E2800C"/>
</linearGradient>
<linearGradient id="paint2_linear" x1="103.773" y1="105.357" x2="235.073" y2="236.656" gradientUnits="userSpaceOnUse">
<stop stop-color="white"/>
<stop offset="1" stop-color="#E48618"/>
</linearGradient>
</defs>
</svg>
