<svg width="286" height="286" viewBox="0 0 286 286" fill="none" xmlns="http://www.w3.org/2000/svg">
<path fill-rule="evenodd" clip-rule="evenodd" d="M0.150508 136.189C1.45498 107.582 11.1763 81.1696 26.896 59.3698L30.5 63.5L47 69L60.4791 86.9385C51.8967 99.5915 46.1692 114.338 44.222 130.253L8.49998 138L0.150508 136.189ZM0.00488242 144C0.281197 177.708 12.2363 208.633 32.0223 232.926L42.6456 228.335L52.6456 217.335L61.1237 198.777C50.289 183.192 43.8227 164.342 43.4978 144H0.00488242ZM52.3167 253.287C76.9507 273.487 108.462 285.61 142.805 285.61C180.216 285.61 214.267 271.224 239.729 247.682L239.5 244L212.969 237.5L202 225L199.255 223.319C183.169 234.643 163.555 241.292 142.389 241.292C121.273 241.292 101.704 234.675 85.6398 223.402L60.1456 240.835L52.3167 253.287ZM229.5 209.5L223.288 199.299C233.077 185.409 239.38 168.885 240.922 151H285.379C283.751 179.769 273.607 206.26 257.429 227.994L246 217.5L229.5 209.5ZM274.5 145L241.186 137.775C240.311 118.718 234.043 101.067 223.871 86.3149L233.5 71L255.942 55.6543C274.504 79.7154 285.562 109.863 285.61 142.591L274.5 145ZM233.032 32.1088C208.436 12.0373 177.026 0 142.805 0C108.493 0 77.0072 12.1011 52.3829 32.2683L55 38.5L68.5 46.5L71.5 54L82.5 56L87.55 60.0677C103.244 49.592 122.103 43.485 142.389 43.485C165.186 43.485 186.182 51.1983 202.909 64.1574L216 58.5L226 47.5L233.032 32.1088Z" fill="url(#paint0_radial)"/>
<path d="M93.0072 211.608C72.403 216.629 70.2468 203.362 74.1252 192.726L124.86 146.363L162.959 110.252C161.517 109.309 169.574 93.7791 172.547 87.9436C173.929 84.1838 202.186 61.8898 198.432 65.6435C197.181 66.8948 178.799 91.4938 180.635 91.3905C184.426 91.1773 207 71.4998 205.786 72.9976C204.552 74.5205 185.899 97.655 187.393 98.1483C188.887 98.6416 212.869 77.4419 211.3 79.0118C209.777 80.534 194.813 101.064 194.504 103.758C194.195 106.452 222.141 79.7059 217.91 85.1218C214.787 89.1206 202.13 104.877 195.205 110.602C192.285 112.887 173.659 121.952 171.502 120.797L136.786 158.289L93.0072 211.608Z" fill="url(#paint1_linear)"/>
<path d="M191.975 210.8C207.841 213.627 214.153 207.139 210.062 192.713L202.911 195.897L176.239 169.225L176.23 169.213C172.484 164.481 162.996 152.491 158.482 141.132C153.634 128.935 103.5 89.9998 73.6153 80.5143L151.221 166.468L191.975 210.8Z" fill="url(#paint2_linear)"/>
<defs>
<radialGradient id="paint0_radial" cx="0" cy="0" r="1" gradientUnits="userSpaceOnUse" gradientTransform="translate(142.807 142.805) rotate(90) scale(142.805 142.802)">
<stop offset="0.786458" stop-color="#08A0CA"/>
<stop offset="1" stop-color="#05556B"/>
</radialGradient>
<linearGradient id="paint1_linear" x1="208.468" y1="74.5371" x2="74.5369" y2="208.468" gradientUnits="userSpaceOnUse">
<stop stop-color="#08A0CA"/>
<stop offset="1" stop-color="#05556B"/>
</linearGradient>
<linearGradient id="paint2_linear" x1="76.7729" y1="77.3567" x2="208.072" y2="208.656" gradientUnits="userSpaceOnUse">
<stop stop-color="#08A0CA"/>
<stop offset="1" stop-color="#05556B"/>
</linearGradient>
</defs>
</svg>
